<svg xmlns="http://www.w3.org/2000/svg" viewBox="0 0 841 239" fill="currentColor">
<g transform="translate(-15.4,255) scale(0.1,-0.1)">
<path d="M777 2162 l-387 -387 0 -462 0 -463 228 0 227 0 -345 -345 -346 -345
646 0 645 0 387 388 388 387 2 463 3 462 -235 0 -235 1 350 344 349 345 -644
0 -645 -1 -388 -387z m1053 -27 l-275 -275 -125 0 -125 0 -387 -387 -388 -388
0 317 0 317 351 348 350 348 437 -3 437 -2 -275 -275z m-225 -780 l-370 -364
-307 -1 -307 0 372 365 372 365 305 0 304 0 -369 -365z m485 -38 l0 -312 -358
-358 -357 -357 -443 2 c-243 1 -442 3 -442 6 0 2 125 128 279 279 l278 274
124 1 124 1 390 388 c215 214 393 389 398 389 4 0 7 -141 7 -313z"/>
<path d="M3147 1770 c-65 -11 -150 -54 -181 -91 -65 -77 -60 -219 10 -277 61
-50 88 -55 384 -59 298 -5 324 -10 336 -60 10 -39 -7 -74 -46 -97 -33 -20 -53
-21 -372 -24 l-338 -3 0 -65 0 -64 323 0 c349 0 414 6 491 48 89 48 130 148
102 244 -18 62 -42 88 -111 120 -47 22 -65 23 -325 28 -239 4 -280 7 -302 22
-34 22 -43 51 -26 85 28 58 44 61 391 69 l317 7 0 63 0 64 -302 -1 c-167 -1
-325 -5 -351 -9z"/>
<path d="M4040 1715 l0 -65 198 -2 197 -3 2 -270 c1 -148 2 -287 2 -307 l1
-38 80 0 80 0 0 310 0 310 195 0 195 0 0 65 0 65 -475 0 -475 0 0 -65z"/>
<path d="M5456 1764 c-3 -8 -114 -175 -246 -369 -132 -195 -240 -357 -240
-360 0 -3 40 -5 89 -5 l89 0 58 90 58 90 282 0 282 0 58 -90 57 -90 94 0 c76
0 92 3 86 13 -4 8 -116 177 -247 375 l-240 362 -87 0 c-70 0 -88 -3 -93 -16z
m189 -270 c53 -81 94 -148 91 -151 -9 -9 -388 -14 -385 -5 5 11 193 301 196
302 2 0 46 -66 98 -146z"/>
<path d="M6350 1406 l0 -376 80 0 80 0 0 141 0 141 143 -4 142 -3 154 -137
155 -138 115 0 116 1 -35 30 c-19 17 -95 79 -168 137 l-133 106 69 12 c139 23
203 79 218 191 14 109 -37 197 -141 245 -49 22 -58 23 -422 26 l-373 3 0 -375z
m727 218 c62 -46 51 -144 -20 -177 -30 -15 -73 -17 -291 -17 l-256 0 0 111 0
110 269 -3 c255 -3 271 -4 298 -24z"/>
<path d="M7600 1405 l0 -375 80 0 80 0 0 130 c0 72 3 130 8 130 4 0 31 15 59
34 l52 34 225 -164 225 -164 118 0 118 1 -30 24 c-16 14 -137 100 -267 193
-130 92 -237 170 -237 173 -1 3 112 81 249 174 138 92 253 172 256 176 3 5
-47 9 -111 9 l-115 0 -208 -138 c-207 -138 -324 -212 -336 -212 -3 0 -6 79 -6
175 l0 175 -80 0 -80 0 0 -375z"/>
</g>
</svg>
