<svg xmlns="http://www.w3.org/2000/svg" viewBox="0 0 343 363" fill="currentColor">
<g transform="translate(-16,378.4) scale(0.1,-0.1)">
<path d="M2625 3782 l-961 -2 -570 -573 -571 -572 1 -712 1 -713 340 0 340 0
-523 -523 c-287 -287 -522 -525 -522 -530 0 -4 433 -7 963 -7 l962 0 583 583
582 582 0 708 0 707 -352 0 -353 0 526 526 c289 288 523 526 520 527 -3 1
-438 1 -966 -1z m40 -632 l-420 -420 -180 0 -180 0 -572 -572 -573 -573 0 481
0 482 508 509 507 510 665 1 665 2 -420 -420z m195 -636 c0 -4 -244 -251 -542
-550 l-543 -544 -448 0 -448 0 553 550 553 549 438 1 c240 0 437 -3 437 -6z
m-342 -1628 l-523 -526 -665 0 -665 0 425 425 425 425 175 0 175 0 585 585
585 585 3 -484 2 -483 -522 -527z"/>
</g>
</svg>
