<svg xmlns="http://www.w3.org/2000/svg" viewBox="0 0 617 79" fill="currentColor">
<g transform="translate(-11,89) scale(0.1,-0.1)">
<path d="M270 881 c-106 -33 -160 -106 -160 -218 0 -87 40 -152 117 -190 l58
-28 312 -5 c297 -5 313 -6 333 -25 51 -51 41 -137 -20 -167 -31 -16 -73 -18
-412 -18 l-378 0 0 -66 0 -65 398 3 c440 4 453 6 520 71 43 41 52 58 61 118
16 101 -22 195 -97 236 -64 36 -131 43 -408 43 -281 0 -309 4 -334 49 -23 44
-13 86 33 133 1 1 173 5 382 8 l380 5 3 63 3 62 -383 -1 c-211 0 -394 -4 -408
-8z"/>
<path d="M1340 825 l0 -65 210 0 210 0 2 -327 3 -328 68 -3 67 -3 0 331 0 330
210 0 210 0 0 65 0 65 -490 0 -490 0 0 -65z"/>
<path d="M2857 778 c-238 -324 -482 -660 -485 -668 -2 -6 28 -10 75 -10 90 0
92 1 158 103 l38 57 352 0 351 0 58 -80 57 -80 80 0 c43 0 79 3 79 6 0 9 -39
63 -464 647 l-100 137 -58 0 -58 0 -83 -112z m282 -228 l120 -165 -135 -3
c-74 -1 -193 -1 -263 0 l-128 3 130 178 c107 146 133 176 143 165 7 -7 67 -87
133 -178z"/>
<path d="M3908 668 c0 -123 0 -299 1 -393 l1 -170 65 -3 65 -3 0 151 0 150
208 -1 207 0 165 -149 165 -149 105 0 105 0 -26 22 c-14 12 -79 67 -144 122
-65 55 -133 112 -149 127 l-31 27 31 1 c45 0 120 25 165 54 108 72 119 273 20
370 -65 64 -83 66 -543 66 l-408 0 -2 -222z m848 58 c27 -27 34 -42 34 -75 0
-51 -16 -86 -49 -108 -23 -16 -61 -18 -363 -21 l-338 -3 0 121 0 120 341 0
341 0 34 -34z"/>
<path d="M5300 495 l0 -395 65 0 65 0 2 172 3 173 120 2 120 3 203 -175 202
-175 107 0 c92 0 105 2 93 14 -8 8 -88 75 -178 150 -254 211 -301 251 -301
256 0 6 37 35 277 219 95 74 175 137 178 142 3 5 -42 9 -100 9 l-105 0 -196
-160 -196 -161 -112 3 -112 3 -3 158 -3 157 -64 0 -65 0 0 -395z"/>
</g>
</svg>
